{"title":"Agnes Varda - Sans toit ni loi (1985)","uid":5956847,"size":1464995548,"categoryP":"video","categoryS":"movies","magnet":"?xt=urn:btih:c30612c0fce96a100058a7d0284d87677a2d5121&amp;dn=Agnes+Varda+-+Sans+toit+ni+loi+%281985%29&amp;tr=udp%3A%2F%2Ftracker.openbittorrent.com%3A80&amp;tr=udp%3A%2F%2Fopen.demonii.com%3A1337&amp;tr=udp%3A%2F%2Ftracker.coppersurfer.tk%3A6969&amp;tr=udp%3A%2F%2Fexodus.desync.com%3A6969","seeders":12,"leechers":2,"uploader":"mfccorrea","files":4,"time":1289759931,"description":"Vagabond, directed by Agnes Varda is the dark disturbing story of a female drifter named Mona (Sandrine Bonnaire). The film opens as Mona's frozen body is found in a drainage ditch and proceeds to tell her story in a series of flashbacks and semi-documentary style &quot;interviews&quot; with the people who have known Mona during the last few weeks of her life. Mona is a distant, independent and not-very-likeable woman who goes from place to place, living where she can and with anyone who will take her in. Mona's true nature remains a puzzle, both to those who thought they knew her, and to the audience. As the movie progresses it becomes clear that no one knew the true Mona and she, because of her aloofness and essential coldness, provided a canvas for those she met to write upon. Who Mona really was, and what she thought remains ambiguous. Sandrine Bonnaire is excellent as Mona, making an unappealing and cold character interesting and intriguing. Director Agnes Varda began her career as a still photographer. This beginning is evident in her elegant framing of the film. She has an instinctive awareness of and a photographer's eye for visual detail which makes the film cold, bleak, and aridly beautiful. Internationally acclaimed, Vagabond is Varda's most successful film. \n\n   General\n      Complete name : Sans toit ni loi.avi\n      Format : AVI\n      Format/Info : Audio Video Interleave\n      File size : 1.36 GiB\n      Duration : 1h 45mn\n      Overall bit rate : 1 844 Kbps\n      Writing application : FairUse Wizard - http://fairusewizard.com\n      Writing library : The best and REALLY easy backup tool\n   Video #0\n      ID : 0\n      Format : MPEG-4 Visual\n      Format profile : AdvancedSimple@L5\n      Format settings, BVOP : Yes\n      Format settings, QPel : No\n      Format settings, GMC : No warppoints\n      Format settings, Matrix : Default (MPEG)\n      Muxing mode : Packed bitstream\n      Codec ID : XVID\n      Codec ID/Hint : XviD\n      Duration : 1h 45mn\n      Bit rate : 1 642 Kbps\n      Width : 672 pixels\n      Height : 384 pixels\n      Display aspect ratio : 16:9\n      Frame rate : 23.976 fps\n      Resolution : 24 bits\n      Colorimetry : 4:2:0\n      Scan type : Progressive\n      Bits/(Pixel*Frame) : 0.265\n      Stream size : 1.22 GiB (89%)\n      Writing library : XviD 1.2.0.dev47 (UTC 2006-11-01)\n   Audio #1\n      ID : 1\n      Format : AC-3\n      Format/Info : Audio Coding 3\n      Codec ID : 2000\n      Duration : 1h 45mn\n      Bit rate mode : Constant\n      Bit rate : 192 Kbps\n      Channel(s) : 1 channel\n      Channel positions : C\n      Sampling rate : 48.0 KHz\n      Stream size : 145 MiB (10%)\n      Alignment : Split accross interleaves\n      Interleave, duration : 42 ms (1.00 video frame)\n      Interleave, preload duration : 500 ms\n &lt;a href=&quot;\nhttp://www.imdb.com/title/tt0089960/&quot; rel=&quot;nofollow&quot; target=&quot;_NEW&quot;&gt;\nhttp://www.imdb.com/title/tt0089960/&lt;/a&gt;\n\nFrench audio; English, Spanish and Portuguese subtitles\n\nMy rip of the Criterion DVD\n\nAgnes Varda - Sans toit ni loi (1985)","torrent":{"xt":"urn:btih:c30612c0fce96a100058a7d0284d87677a2d5121","amp;dn":"Agnes+Varda+-+Sans+toit+ni+loi+%281985%29","amp;tr":["udp%3A%2F%2Ftracker.openbittorrent.com%3A80","udp%3A%2F%2Fopen.demonii.com%3A1337","udp%3A%2F%2Ftracker.coppersurfer.tk%3A6969","udp%3A%2F%2Fexodus.desync.com%3A6969"],"infoHash":"c30612c0fce96a100058a7d0284d87677a2d5121","infoHashBuffer":{"type":"Buffer","data":[195,6,18,192,252,233,106,16,0,88,167,208,40,77,135,103,122,45,81,33]},"announce":[],"urlList":[]}}